<mxfile host="app.diagrams.net" modified="2024-05-18T12:07:02.168Z" agent="Mozilla/5.0 (Windows NT 10.0; Win64; x64) AppleWebKit/537.36 (KHTML, like Gecko) Chrome/122.0.0.0 Safari/537.36 Edg/122.0.0.0" etag="LDBz7PYotlNEHiZbal-y" version="24.4.4" type="github">
  <diagram id="C5RBs43oDa-KdzZeNtuy" name="Page-1">
    <mxGraphModel dx="1179" dy="679" grid="1" gridSize="10" guides="1" tooltips="1" connect="1" arrows="1" fold="1" page="1" pageScale="1" pageWidth="827" pageHeight="1169" math="0" shadow="0">
      <root>
        <mxCell id="WIyWlLk6GJQsqaUBKTNV-0" />
        <mxCell id="WIyWlLk6GJQsqaUBKTNV-1" parent="WIyWlLk6GJQsqaUBKTNV-0" />
        <mxCell id="jB1GZDwrPgLxm5eVufP3-0" value="" style="rounded=0;whiteSpace=wrap;html=1;" vertex="1" parent="WIyWlLk6GJQsqaUBKTNV-1">
          <mxGeometry x="230" y="290" width="30" height="180" as="geometry" />
        </mxCell>
        <mxCell id="jB1GZDwrPgLxm5eVufP3-1" value="" style="endArrow=none;dashed=1;html=1;strokeWidth=2;rounded=0;" edge="1" parent="WIyWlLk6GJQsqaUBKTNV-1">
          <mxGeometry width="50" height="50" relative="1" as="geometry">
            <mxPoint x="244" y="290" as="sourcePoint" />
            <mxPoint x="244" y="260" as="targetPoint" />
          </mxGeometry>
        </mxCell>
        <mxCell id="jB1GZDwrPgLxm5eVufP3-2" value="" style="endArrow=none;dashed=1;html=1;strokeWidth=2;rounded=0;" edge="1" parent="WIyWlLk6GJQsqaUBKTNV-1">
          <mxGeometry width="50" height="50" relative="1" as="geometry">
            <mxPoint x="244.5" y="470" as="sourcePoint" />
            <mxPoint x="244.5" y="510" as="targetPoint" />
          </mxGeometry>
        </mxCell>
        <mxCell id="jB1GZDwrPgLxm5eVufP3-25" style="edgeStyle=orthogonalEdgeStyle;rounded=0;orthogonalLoop=1;jettySize=auto;html=1;exitX=1;exitY=0.5;exitDx=0;exitDy=0;entryX=0;entryY=0.5;entryDx=0;entryDy=0;" edge="1" parent="WIyWlLk6GJQsqaUBKTNV-1" source="jB1GZDwrPgLxm5eVufP3-3" target="jB1GZDwrPgLxm5eVufP3-6">
          <mxGeometry relative="1" as="geometry" />
        </mxCell>
        <mxCell id="jB1GZDwrPgLxm5eVufP3-26" value="3.提交客户/供应商/承运商搜素信息" style="edgeLabel;html=1;align=center;verticalAlign=middle;resizable=0;points=[];" vertex="1" connectable="0" parent="jB1GZDwrPgLxm5eVufP3-25">
          <mxGeometry x="-0.1615" y="2" relative="1" as="geometry">
            <mxPoint x="4" y="3" as="offset" />
          </mxGeometry>
        </mxCell>
        <mxCell id="jB1GZDwrPgLxm5eVufP3-3" value="" style="rounded=0;whiteSpace=wrap;html=1;" vertex="1" parent="WIyWlLk6GJQsqaUBKTNV-1">
          <mxGeometry x="476.67" y="280" width="30" height="190" as="geometry" />
        </mxCell>
        <mxCell id="jB1GZDwrPgLxm5eVufP3-4" value="" style="endArrow=none;dashed=1;html=1;strokeWidth=2;rounded=0;" edge="1" parent="WIyWlLk6GJQsqaUBKTNV-1">
          <mxGeometry width="50" height="50" relative="1" as="geometry">
            <mxPoint x="490.67" y="280" as="sourcePoint" />
            <mxPoint x="490.67" y="250" as="targetPoint" />
          </mxGeometry>
        </mxCell>
        <mxCell id="jB1GZDwrPgLxm5eVufP3-5" value="" style="endArrow=none;dashed=1;html=1;strokeWidth=2;rounded=0;" edge="1" parent="WIyWlLk6GJQsqaUBKTNV-1">
          <mxGeometry width="50" height="50" relative="1" as="geometry">
            <mxPoint x="491.25" y="470" as="sourcePoint" />
            <mxPoint x="491.25" y="510" as="targetPoint" />
          </mxGeometry>
        </mxCell>
        <mxCell id="jB1GZDwrPgLxm5eVufP3-6" value="" style="rounded=0;whiteSpace=wrap;html=1;" vertex="1" parent="WIyWlLk6GJQsqaUBKTNV-1">
          <mxGeometry x="719.6600000000001" y="280" width="30" height="190" as="geometry" />
        </mxCell>
        <mxCell id="jB1GZDwrPgLxm5eVufP3-7" value="" style="endArrow=none;dashed=1;html=1;strokeWidth=2;rounded=0;" edge="1" parent="WIyWlLk6GJQsqaUBKTNV-1">
          <mxGeometry width="50" height="50" relative="1" as="geometry">
            <mxPoint x="733.6600000000001" y="277.5" as="sourcePoint" />
            <mxPoint x="733.6600000000001" y="247.5" as="targetPoint" />
          </mxGeometry>
        </mxCell>
        <mxCell id="jB1GZDwrPgLxm5eVufP3-8" value="" style="endArrow=none;dashed=1;html=1;strokeWidth=2;rounded=0;" edge="1" parent="WIyWlLk6GJQsqaUBKTNV-1">
          <mxGeometry width="50" height="50" relative="1" as="geometry">
            <mxPoint x="734.2400000000001" y="470" as="sourcePoint" />
            <mxPoint x="734.2400000000001" y="510" as="targetPoint" />
          </mxGeometry>
        </mxCell>
        <mxCell id="jB1GZDwrPgLxm5eVufP3-32" style="edgeStyle=orthogonalEdgeStyle;rounded=0;orthogonalLoop=1;jettySize=auto;html=1;exitX=1.044;exitY=0.6;exitDx=0;exitDy=0;exitPerimeter=0;entryX=0.067;entryY=0.596;entryDx=0;entryDy=0;entryPerimeter=0;" edge="1" parent="WIyWlLk6GJQsqaUBKTNV-1" source="jB1GZDwrPgLxm5eVufP3-9" target="jB1GZDwrPgLxm5eVufP3-17">
          <mxGeometry relative="1" as="geometry">
            <mxPoint x="1040" y="394" as="targetPoint" />
          </mxGeometry>
        </mxCell>
        <mxCell id="jB1GZDwrPgLxm5eVufP3-33" value="5.查询客户/供应商/承运商信息" style="edgeLabel;html=1;align=center;verticalAlign=middle;resizable=0;points=[];" vertex="1" connectable="0" parent="jB1GZDwrPgLxm5eVufP3-32">
          <mxGeometry x="-0.2364" relative="1" as="geometry">
            <mxPoint as="offset" />
          </mxGeometry>
        </mxCell>
        <mxCell id="jB1GZDwrPgLxm5eVufP3-9" value="" style="rounded=0;whiteSpace=wrap;html=1;" vertex="1" parent="WIyWlLk6GJQsqaUBKTNV-1">
          <mxGeometry x="945" y="286.25" width="30" height="180" as="geometry" />
        </mxCell>
        <mxCell id="jB1GZDwrPgLxm5eVufP3-10" value="" style="endArrow=none;dashed=1;html=1;strokeWidth=2;rounded=0;" edge="1" parent="WIyWlLk6GJQsqaUBKTNV-1">
          <mxGeometry width="50" height="50" relative="1" as="geometry">
            <mxPoint x="959" y="286.25" as="sourcePoint" />
            <mxPoint x="959" y="256.25" as="targetPoint" />
          </mxGeometry>
        </mxCell>
        <mxCell id="jB1GZDwrPgLxm5eVufP3-11" value="" style="endArrow=none;dashed=1;html=1;strokeWidth=2;rounded=0;" edge="1" parent="WIyWlLk6GJQsqaUBKTNV-1">
          <mxGeometry width="50" height="50" relative="1" as="geometry">
            <mxPoint x="959.5" y="466.25" as="sourcePoint" />
            <mxPoint x="959.5" y="506.25" as="targetPoint" />
          </mxGeometry>
        </mxCell>
        <mxCell id="jB1GZDwrPgLxm5eVufP3-12" value="管理员" style="shape=umlActor;verticalLabelPosition=bottom;verticalAlign=top;html=1;outlineConnect=0;" vertex="1" parent="WIyWlLk6GJQsqaUBKTNV-1">
          <mxGeometry x="230" y="180" width="30" height="60" as="geometry" />
        </mxCell>
        <mxCell id="jB1GZDwrPgLxm5eVufP3-13" value="浏览器" style="rounded=0;whiteSpace=wrap;html=1;" vertex="1" parent="WIyWlLk6GJQsqaUBKTNV-1">
          <mxGeometry x="442.67" y="220" width="97" height="30" as="geometry" />
        </mxCell>
        <mxCell id="jB1GZDwrPgLxm5eVufP3-14" value="请求处理程序" style="rounded=0;whiteSpace=wrap;html=1;" vertex="1" parent="WIyWlLk6GJQsqaUBKTNV-1">
          <mxGeometry x="689.6600000000001" y="220" width="90" height="30" as="geometry" />
        </mxCell>
        <mxCell id="jB1GZDwrPgLxm5eVufP3-16" value="数据持久层" style="rounded=0;whiteSpace=wrap;html=1;" vertex="1" parent="WIyWlLk6GJQsqaUBKTNV-1">
          <mxGeometry x="910" y="220" width="100" height="33.75" as="geometry" />
        </mxCell>
        <mxCell id="jB1GZDwrPgLxm5eVufP3-34" style="edgeStyle=orthogonalEdgeStyle;rounded=0;orthogonalLoop=1;jettySize=auto;html=1;exitX=0;exitY=0.75;exitDx=0;exitDy=0;entryX=1;entryY=0.75;entryDx=0;entryDy=0;" edge="1" parent="WIyWlLk6GJQsqaUBKTNV-1" source="jB1GZDwrPgLxm5eVufP3-17" target="jB1GZDwrPgLxm5eVufP3-9">
          <mxGeometry relative="1" as="geometry" />
        </mxCell>
        <mxCell id="jB1GZDwrPgLxm5eVufP3-35" value="6.返回结果" style="edgeLabel;html=1;align=center;verticalAlign=middle;resizable=0;points=[];" vertex="1" connectable="0" parent="jB1GZDwrPgLxm5eVufP3-34">
          <mxGeometry x="0.0242" y="1" relative="1" as="geometry">
            <mxPoint as="offset" />
          </mxGeometry>
        </mxCell>
        <mxCell id="jB1GZDwrPgLxm5eVufP3-17" value="" style="rounded=0;whiteSpace=wrap;html=1;" vertex="1" parent="WIyWlLk6GJQsqaUBKTNV-1">
          <mxGeometry x="1185" y="286.25" width="30" height="180" as="geometry" />
        </mxCell>
        <mxCell id="jB1GZDwrPgLxm5eVufP3-18" value="" style="endArrow=none;dashed=1;html=1;strokeWidth=2;rounded=0;" edge="1" parent="WIyWlLk6GJQsqaUBKTNV-1">
          <mxGeometry width="50" height="50" relative="1" as="geometry">
            <mxPoint x="1199" y="286.25" as="sourcePoint" />
            <mxPoint x="1199" y="256.25" as="targetPoint" />
          </mxGeometry>
        </mxCell>
        <mxCell id="jB1GZDwrPgLxm5eVufP3-19" value="" style="endArrow=none;dashed=1;html=1;strokeWidth=2;rounded=0;" edge="1" parent="WIyWlLk6GJQsqaUBKTNV-1">
          <mxGeometry width="50" height="50" relative="1" as="geometry">
            <mxPoint x="1199.5" y="466.25" as="sourcePoint" />
            <mxPoint x="1199.5" y="506.25" as="targetPoint" />
          </mxGeometry>
        </mxCell>
        <mxCell id="jB1GZDwrPgLxm5eVufP3-20" value="数据库" style="rounded=0;whiteSpace=wrap;html=1;" vertex="1" parent="WIyWlLk6GJQsqaUBKTNV-1">
          <mxGeometry x="1150" y="220" width="100" height="33.75" as="geometry" />
        </mxCell>
        <mxCell id="jB1GZDwrPgLxm5eVufP3-21" value="" style="endArrow=classic;html=1;rounded=0;entryX=0;entryY=0.25;entryDx=0;entryDy=0;exitX=1.006;exitY=0.192;exitDx=0;exitDy=0;exitPerimeter=0;" edge="1" parent="WIyWlLk6GJQsqaUBKTNV-1" source="jB1GZDwrPgLxm5eVufP3-0" target="jB1GZDwrPgLxm5eVufP3-3">
          <mxGeometry width="50" height="50" relative="1" as="geometry">
            <mxPoint x="280" y="325" as="sourcePoint" />
            <mxPoint x="390" y="319" as="targetPoint" />
          </mxGeometry>
        </mxCell>
        <mxCell id="jB1GZDwrPgLxm5eVufP3-22" value="1.登录系统" style="edgeLabel;html=1;align=center;verticalAlign=middle;resizable=0;points=[];" vertex="1" connectable="0" parent="jB1GZDwrPgLxm5eVufP3-21">
          <mxGeometry x="-0.1126" y="1" relative="1" as="geometry">
            <mxPoint x="-20" as="offset" />
          </mxGeometry>
        </mxCell>
        <mxCell id="jB1GZDwrPgLxm5eVufP3-23" style="edgeStyle=orthogonalEdgeStyle;rounded=0;orthogonalLoop=1;jettySize=auto;html=1;exitX=1;exitY=0.25;exitDx=0;exitDy=0;entryX=0.018;entryY=0.364;entryDx=0;entryDy=0;entryPerimeter=0;" edge="1" parent="WIyWlLk6GJQsqaUBKTNV-1" target="jB1GZDwrPgLxm5eVufP3-3">
          <mxGeometry relative="1" as="geometry">
            <mxPoint x="260.3300000000001" y="350.46" as="sourcePoint" />
            <mxPoint x="399.00000000000006" y="349.99999999999994" as="targetPoint" />
          </mxGeometry>
        </mxCell>
        <mxCell id="jB1GZDwrPgLxm5eVufP3-24" value="2.进入客户/供应商/承运商模块" style="edgeLabel;html=1;align=center;verticalAlign=middle;resizable=0;points=[];" vertex="1" connectable="0" parent="jB1GZDwrPgLxm5eVufP3-23">
          <mxGeometry x="-0.1155" relative="1" as="geometry">
            <mxPoint x="3" y="-1" as="offset" />
          </mxGeometry>
        </mxCell>
        <mxCell id="jB1GZDwrPgLxm5eVufP3-30" style="edgeStyle=orthogonalEdgeStyle;rounded=0;orthogonalLoop=1;jettySize=auto;html=1;entryX=0;entryY=0.5;entryDx=0;entryDy=0;exitX=1;exitY=0.5;exitDx=0;exitDy=0;" edge="1" parent="WIyWlLk6GJQsqaUBKTNV-1" source="jB1GZDwrPgLxm5eVufP3-6" target="jB1GZDwrPgLxm5eVufP3-9">
          <mxGeometry relative="1" as="geometry">
            <mxPoint x="674.33" y="376" as="sourcePoint" />
          </mxGeometry>
        </mxCell>
        <mxCell id="jB1GZDwrPgLxm5eVufP3-31" value="4.请求客户/供应商/承运商信息" style="edgeLabel;html=1;align=center;verticalAlign=middle;resizable=0;points=[];" vertex="1" connectable="0" parent="jB1GZDwrPgLxm5eVufP3-30">
          <mxGeometry x="-0.182" y="-1" relative="1" as="geometry">
            <mxPoint x="13" y="-1" as="offset" />
          </mxGeometry>
        </mxCell>
        <mxCell id="jB1GZDwrPgLxm5eVufP3-36" value="" style="endArrow=classic;html=1;rounded=0;exitX=0.022;exitY=0.844;exitDx=0;exitDy=0;exitPerimeter=0;entryX=0.945;entryY=0.822;entryDx=0;entryDy=0;entryPerimeter=0;" edge="1" parent="WIyWlLk6GJQsqaUBKTNV-1" source="jB1GZDwrPgLxm5eVufP3-9" target="jB1GZDwrPgLxm5eVufP3-6">
          <mxGeometry width="50" height="50" relative="1" as="geometry">
            <mxPoint x="779.33" y="439.97" as="sourcePoint" />
            <mxPoint x="669.32" y="440" as="targetPoint" />
          </mxGeometry>
        </mxCell>
        <mxCell id="jB1GZDwrPgLxm5eVufP3-38" value="7.返回结果" style="edgeLabel;html=1;align=center;verticalAlign=middle;resizable=0;points=[];" vertex="1" connectable="0" parent="jB1GZDwrPgLxm5eVufP3-36">
          <mxGeometry x="-0.0213" y="-1" relative="1" as="geometry">
            <mxPoint as="offset" />
          </mxGeometry>
        </mxCell>
        <mxCell id="jB1GZDwrPgLxm5eVufP3-39" value="" style="endArrow=classic;html=1;rounded=0;entryX=1.022;entryY=0.934;entryDx=0;entryDy=0;entryPerimeter=0;exitX=0.033;exitY=0.934;exitDx=0;exitDy=0;exitPerimeter=0;" edge="1" parent="WIyWlLk6GJQsqaUBKTNV-1" source="jB1GZDwrPgLxm5eVufP3-6" target="jB1GZDwrPgLxm5eVufP3-3">
          <mxGeometry width="50" height="50" relative="1" as="geometry">
            <mxPoint x="640" y="460" as="sourcePoint" />
            <mxPoint x="620" y="410" as="targetPoint" />
          </mxGeometry>
        </mxCell>
        <mxCell id="jB1GZDwrPgLxm5eVufP3-40" value="8.返回状态" style="edgeLabel;html=1;align=center;verticalAlign=middle;resizable=0;points=[];" vertex="1" connectable="0" parent="jB1GZDwrPgLxm5eVufP3-39">
          <mxGeometry x="0.1818" y="1" relative="1" as="geometry">
            <mxPoint as="offset" />
          </mxGeometry>
        </mxCell>
      </root>
    </mxGraphModel>
  </diagram>
</mxfile>
